<svg width="445" height="421" viewBox="0 0 445 421" fill="none" xmlns="http://www.w3.org/2000/svg">
<path d="M65.7836 90.1191L141.864 256.203C141.952 256.396 141.977 256.612 141.935 256.82L127.117 329.429C127.045 329.782 127.168 330.146 127.44 330.383L219.652 410.697C219.873 410.889 220.167 410.975 220.457 410.931L309.079 397.638C309.598 397.56 309.968 397.095 309.928 396.571L295.529 211.869C295.51 211.631 295.577 211.394 295.718 211.201L342.761 146.827C342.914 146.617 342.98 146.356 342.944 146.099L326.609 28.288C326.545 27.8268 326.171 27.4707 325.708 27.4293L220.685 18.0611C220.272 18.0243 219.88 18.2457 219.698 18.6178L142.136 177.223C142.047 177.403 141.906 177.553 141.732 177.653L65.8513 220.8C65.626 220.928 65.4592 221.139 65.3861 221.388L33.7141 329.271C33.5876 329.702 33.764 330.164 34.1454 330.401L141.337 397.088C141.727 397.33 142.231 397.276 142.561 396.957L266.745 276.746C266.91 276.587 267.125 276.489 267.353 276.469L351.64 269.032C351.872 269.011 352.091 268.91 352.257 268.745L434.428 187.068C434.762 186.737 434.819 186.217 434.566 185.821L373.388 90.1077C373.157 89.7448 372.718 89.5712 372.301 89.6768L197.29 133.927C197.101 133.974 196.902 133.966 196.717 133.902L115.348 105.621C115.124 105.543 114.878 105.548 114.656 105.634L10.6937 146.229C10.282 146.39 10.0247 146.802 10.0607 147.242L18.9382 255.744C18.9747 256.191 19.3043 256.559 19.7446 256.644L196.654 290.933C196.878 290.976 197.08 291.095 197.227 291.269L251.7 355.646C251.89 355.87 252.17 356 252.464 356H351.507C351.818 356 352.111 355.855 352.3 355.609L412.434 277.237C412.753 276.822 412.697 276.23 412.306 275.882L267.193 146.672C267.066 146.559 266.971 146.416 266.914 146.256L240.119 69.838C240.042 69.6195 239.892 69.4343 239.694 69.3141L142.684 10.4155C142.284 10.1726 141.769 10.2397 141.445 10.5769L65.9722 89.0093C65.6873 89.3054 65.6125 89.7456 65.7836 90.1191Z" stroke="white" stroke-width="20"/>
<path d="M217.5 168C217.5 168 226.033 187.325 235.354 196.646C244.675 205.967 264 214.5 264 214.5C264 214.5 244.675 223.033 235.354 232.354C226.033 241.675 217.5 261 217.5 261C217.5 261 208.967 241.675 199.646 232.354C190.325 223.033 171 214.5 171 214.5C171 214.5 190.325 205.967 199.646 196.646C208.967 187.325 217.5 168 217.5 168Z" fill="white"/>
</svg>
